<mxfile host="app.diagrams.net" agent="Mozilla/5.0 (Windows NT 10.0; Win64; x64; rv:134.0) Gecko/20100101 Firefox/134.0" version="26.0.7">
  <diagram name="Page-1" id="xnStX_vJM5kCGhr3FGlF">
    <mxGraphModel dx="993" dy="458" grid="1" gridSize="10" guides="1" tooltips="1" connect="1" arrows="1" fold="1" page="1" pageScale="1" pageWidth="850" pageHeight="1100" math="0" shadow="0">
      <root>
        <mxCell id="0" />
        <mxCell id="1" parent="0" />
        <object label="Heatwave" Description="Description of the hazard" Type="Hazard" Layer="name of the corresponding layer (if applicable)" File="name of the geospatial file describing this hazard component (if applicable)" id="BDBPg4SDOeMVl6-OXKPz-1">
          <mxCell style="rounded=1;whiteSpace=wrap;html=1;strokeWidth=1;fillColor=#dae8fc;strokeColor=#6c8ebf;glass=0;shadow=0;" vertex="1" parent="1">
            <mxGeometry x="600" y="30" width="120" height="60" as="geometry" />
          </mxCell>
        </object>
        <object label="Leads to" Description="Description the cause-effect process from the preceding component to the current component [please substitute with your text!]. " id="BDBPg4SDOeMVl6-OXKPz-2">
          <mxCell style="endArrow=classic;html=1;rounded=1;exitX=0.183;exitY=1.017;exitDx=0;exitDy=0;jumpStyle=arc;edgeStyle=elbowEdgeStyle;elbow=vertical;entryX=0.75;entryY=0;entryDx=0;entryDy=0;exitPerimeter=0;" edge="1" parent="1" source="BDBPg4SDOeMVl6-OXKPz-1" target="BDBPg4SDOeMVl6-OXKPz-14">
            <mxGeometry x="-0.2" width="50" height="50" relative="1" as="geometry">
              <mxPoint x="390" y="110" as="sourcePoint" />
              <mxPoint x="630" y="160" as="targetPoint" />
              <mxPoint as="offset" />
              <Array as="points">
                <mxPoint x="520" y="170" />
              </Array>
            </mxGeometry>
          </mxCell>
        </object>
        <object label="Insufficient snowfall in winter" Description="Description of the hazard" Type="Hazard" Layer="name of the corresponding layer (if applicable)" File="name of the geospatial file describing this hazard component (if applicable)" id="BDBPg4SDOeMVl6-OXKPz-3">
          <mxCell style="rounded=1;whiteSpace=wrap;html=1;strokeWidth=1;fillColor=#dae8fc;strokeColor=#6c8ebf;glass=0;shadow=0;" vertex="1" parent="1">
            <mxGeometry x="20" y="30" width="120" height="60" as="geometry" />
          </mxCell>
        </object>
        <object label="Leads to" Description="Description the cause-effect process from the preceding component to the current component [please substitute with your text!]. " id="BDBPg4SDOeMVl6-OXKPz-4">
          <mxCell style="endArrow=classic;html=1;rounded=1;exitX=0.5;exitY=1;exitDx=0;exitDy=0;jumpStyle=arc;edgeStyle=elbowEdgeStyle;elbow=vertical;entryX=0.25;entryY=0;entryDx=0;entryDy=0;" edge="1" source="BDBPg4SDOeMVl6-OXKPz-3" parent="1" target="BDBPg4SDOeMVl6-OXKPz-11">
            <mxGeometry x="-0.2" width="50" height="50" relative="1" as="geometry">
              <mxPoint x="90" y="110" as="sourcePoint" />
              <mxPoint x="80" y="170" as="targetPoint" />
              <mxPoint as="offset" />
            </mxGeometry>
          </mxCell>
        </object>
        <object label="Insufficient precipitation in summer" Description="Description of the hazard" Type="Hazard" Layer="name of the corresponding layer (if applicable)" File="name of the geospatial file describing this hazard component (if applicable)" id="BDBPg4SDOeMVl6-OXKPz-5">
          <mxCell style="rounded=1;whiteSpace=wrap;html=1;strokeWidth=1;fillColor=#dae8fc;strokeColor=#6c8ebf;glass=0;shadow=0;" vertex="1" parent="1">
            <mxGeometry x="305" y="30" width="120" height="60" as="geometry" />
          </mxCell>
        </object>
        <object label="Leads to" Description="Description the cause-effect process from the preceding component to the current component [please substitute with your text!]. " id="BDBPg4SDOeMVl6-OXKPz-6">
          <mxCell style="endArrow=classic;html=1;rounded=1;exitX=0.5;exitY=1;exitDx=0;exitDy=0;jumpStyle=arc;edgeStyle=elbowEdgeStyle;elbow=vertical;entryX=0.383;entryY=0;entryDx=0;entryDy=0;entryPerimeter=0;" edge="1" source="BDBPg4SDOeMVl6-OXKPz-5" parent="1" target="BDBPg4SDOeMVl6-OXKPz-14">
            <mxGeometry x="-0.2" width="50" height="50" relative="1" as="geometry">
              <mxPoint x="375" y="120" as="sourcePoint" />
              <mxPoint x="365" y="180" as="targetPoint" />
              <mxPoint as="offset" />
            </mxGeometry>
          </mxCell>
        </object>
        <object label="High Temperature in winter" Description="Description of the hazard" Type="Hazard" Layer="name of the corresponding layer (if applicable)" File="name of the geospatial file describing this hazard component (if applicable)" id="BDBPg4SDOeMVl6-OXKPz-7">
          <mxCell style="rounded=1;whiteSpace=wrap;html=1;strokeWidth=1;fillColor=#dae8fc;strokeColor=#6c8ebf;glass=0;shadow=0;" vertex="1" parent="1">
            <mxGeometry x="160" y="30" width="120" height="60" as="geometry" />
          </mxCell>
        </object>
        <object label="Leads to" Description="Description the cause-effect process from the preceding component to the current component [please substitute with your text!]. " id="BDBPg4SDOeMVl6-OXKPz-8">
          <mxCell style="endArrow=classic;html=1;rounded=1;exitX=0.5;exitY=1;exitDx=0;exitDy=0;jumpStyle=arc;edgeStyle=elbowEdgeStyle;elbow=vertical;entryX=0.5;entryY=0;entryDx=0;entryDy=0;" edge="1" source="BDBPg4SDOeMVl6-OXKPz-7" parent="1" target="BDBPg4SDOeMVl6-OXKPz-11">
            <mxGeometry x="-0.2" width="50" height="50" relative="1" as="geometry">
              <mxPoint x="230" y="110" as="sourcePoint" />
              <mxPoint x="220" y="170" as="targetPoint" />
              <mxPoint as="offset" />
            </mxGeometry>
          </mxCell>
        </object>
        <object label="High temperature in spring and summer" Description="Description of the hazard" Type="Hazard" Layer="name of the corresponding layer (if applicable)" File="name of the geospatial file describing this hazard component (if applicable)" id="BDBPg4SDOeMVl6-OXKPz-9">
          <mxCell style="rounded=1;whiteSpace=wrap;html=1;strokeWidth=1;fillColor=#dae8fc;strokeColor=#6c8ebf;glass=0;shadow=0;" vertex="1" parent="1">
            <mxGeometry x="460" y="30" width="120" height="60" as="geometry" />
          </mxCell>
        </object>
        <object label="Leads to" Description="Description the cause-effect process from the preceding component to the current component [please substitute with your text!]. " id="BDBPg4SDOeMVl6-OXKPz-10">
          <mxCell style="endArrow=classic;html=1;rounded=1;exitX=0.5;exitY=1;exitDx=0;exitDy=0;jumpStyle=arc;edgeStyle=elbowEdgeStyle;elbow=vertical;entryX=0.583;entryY=-0.033;entryDx=0;entryDy=0;entryPerimeter=0;" edge="1" source="BDBPg4SDOeMVl6-OXKPz-9" parent="1" target="BDBPg4SDOeMVl6-OXKPz-14">
            <mxGeometry x="-0.2" width="50" height="50" relative="1" as="geometry">
              <mxPoint x="530" y="110" as="sourcePoint" />
              <mxPoint x="520" y="170" as="targetPoint" />
              <mxPoint as="offset" />
              <Array as="points">
                <mxPoint x="460" y="150" />
              </Array>
            </mxGeometry>
          </mxCell>
        </object>
        <object label="Deficit of water storage in snow" Description="Description of the impact" Type="Impact" Layer="name of the corresponding layer (if applicable)" File="name of the geospatial file describing this hazard component (if applicable)" id="BDBPg4SDOeMVl6-OXKPz-11">
          <mxCell style="rounded=1;whiteSpace=wrap;html=1;strokeWidth=1;fillColor=#C9C9C9;strokeColor=#23445d;" vertex="1" parent="1">
            <mxGeometry x="150" y="200" width="120" height="60" as="geometry" />
          </mxCell>
        </object>
        <object label="Low soil moisture" Description="Description of the impact" Type="Impact" Layer="name of the corresponding layer (if applicable)" File="name of the geospatial file describing this hazard component (if applicable)" id="BDBPg4SDOeMVl6-OXKPz-12">
          <mxCell style="rounded=1;whiteSpace=wrap;html=1;strokeWidth=1;fillColor=#C9C9C9;strokeColor=#23445d;" vertex="1" parent="1">
            <mxGeometry x="150" y="330" width="120" height="60" as="geometry" />
          </mxCell>
        </object>
        <object label="Leads to" Description="Description the cause-effect process from the preceding component to the current component [please substitute with your text!]. " id="BDBPg4SDOeMVl6-OXKPz-13">
          <mxCell style="endArrow=classic;html=1;rounded=1;exitX=0.5;exitY=1;exitDx=0;exitDy=0;entryX=0.5;entryY=0;entryDx=0;entryDy=0;jumpStyle=arc;edgeStyle=elbowEdgeStyle;elbow=vertical;" edge="1" target="BDBPg4SDOeMVl6-OXKPz-12" parent="1" source="BDBPg4SDOeMVl6-OXKPz-11">
            <mxGeometry x="-0.2" width="50" height="50" relative="1" as="geometry">
              <mxPoint x="210" y="260" as="sourcePoint" />
              <mxPoint x="270.5" y="380" as="targetPoint" />
              <mxPoint as="offset" />
            </mxGeometry>
          </mxCell>
        </object>
        <object label="Drought" Description="Description of the impact" Type="Impact" Layer="name of the corresponding layer (if applicable)" File="name of the geospatial file describing this hazard component (if applicable)" id="BDBPg4SDOeMVl6-OXKPz-14">
          <mxCell style="rounded=1;whiteSpace=wrap;html=1;strokeWidth=1;fillColor=#C9C9C9;strokeColor=#23445d;" vertex="1" parent="1">
            <mxGeometry x="330" y="330" width="120" height="60" as="geometry" />
          </mxCell>
        </object>
        <object label="Leads to" Description="Description the cause-effect process from the preceding component to the current component [please substitute with your text!]. " id="BDBPg4SDOeMVl6-OXKPz-15">
          <mxCell style="endArrow=classic;html=1;rounded=1;exitX=0.75;exitY=1;exitDx=0;exitDy=0;entryX=0.25;entryY=0;entryDx=0;entryDy=0;jumpStyle=arc;edgeStyle=elbowEdgeStyle;elbow=vertical;" edge="1" target="BDBPg4SDOeMVl6-OXKPz-14" parent="1" source="BDBPg4SDOeMVl6-OXKPz-11">
            <mxGeometry x="-0.2" width="50" height="50" relative="1" as="geometry">
              <mxPoint x="400" y="200" as="sourcePoint" />
              <mxPoint x="460.5" y="320" as="targetPoint" />
              <mxPoint as="offset" />
            </mxGeometry>
          </mxCell>
        </object>
        <object label="Ecosystem disruption" Description="Description of the impact" Type="Impact" Layer="name of the corresponding layer (if applicable)" File="name of the geospatial file describing this hazard component (if applicable)" id="BDBPg4SDOeMVl6-OXKPz-17">
          <mxCell style="rounded=1;whiteSpace=wrap;html=1;strokeWidth=1;fillColor=#C9C9C9;strokeColor=#23445d;" vertex="1" parent="1">
            <mxGeometry x="520" y="330" width="120" height="60" as="geometry" />
          </mxCell>
        </object>
        <object label="Leads to" Description="Description the cause-effect process from the preceding component to the current component [please substitute with your text!]. " id="BDBPg4SDOeMVl6-OXKPz-18">
          <mxCell style="endArrow=classic;html=1;rounded=1;exitX=0.45;exitY=1.033;exitDx=0;exitDy=0;entryX=0.5;entryY=0;entryDx=0;entryDy=0;jumpStyle=arc;edgeStyle=elbowEdgeStyle;elbow=vertical;exitPerimeter=0;" edge="1" target="BDBPg4SDOeMVl6-OXKPz-17" parent="1" source="BDBPg4SDOeMVl6-OXKPz-1">
            <mxGeometry x="-0.2" width="50" height="50" relative="1" as="geometry">
              <mxPoint x="580" y="260" as="sourcePoint" />
              <mxPoint x="640.5" y="380" as="targetPoint" />
              <mxPoint as="offset" />
              <Array as="points">
                <mxPoint x="630" y="200" />
              </Array>
            </mxGeometry>
          </mxCell>
        </object>
      </root>
    </mxGraphModel>
  </diagram>
</mxfile>
